# File created by Blade
# Date/Time:  Thu Jan 22 16:53:03 2015
#---------------------------------------------------------
:version 1.10
:name HOM
:units
  mass 1.0
  length 1.000000
  angle deg
:documentation
     Acclaim Skeleton File
:root
   axis xyz
   order TX TY TZ RX RY RZ
   position 0.000000 0.000000 0.000000
   orientation 0 0 0
:bonedata
   begin
      id 1
      name RightUpLeg_dum
      direction -1.000000 0.000000 0.000000
      length 3.766986
      axis 0.0 0.0 0.0 xyz
   end
   begin
      id 2
      name LeftUpLeg_dum
      direction 1.000000 0.000000 0.000000
      length 3.766986
      axis 0.0 0.0 0.0 xyz
   end
   begin
      id 3
      name Spine_dum
      direction 0.000000 1.000000 0.000000
      length 7.779697
      axis 0.0 0.0 0.0 xyz
   end
   begin
      id 4
      name RightUpLeg
      direction 0.000000 -1.000000 0.000000
      length 18.017682
      axis 0.0 0.0 0.0 xyz
      dof rx ry rz
   end
   begin
      id 5
      name RightLeg
      direction 0.000000 -1.000000 0.000000
      length 16.881075
      axis 0.0 0.0 0.0 xyz
      dof rx ry rz
   end
   begin
      id 6
      name RightFoot
      direction 0.000000 -0.258819 0.965926
      length 5.770812
      axis 15.0 0.0 0.0 xyz
      dof rx ry rz
   end
   begin
      id 7
      name RightToeBase
      direction 0.000000 0.000000 1.000000
      length 2.952750
      axis 0.0 0.0 0.0 xyz
      dof rx ry rz
   end
   begin
      id 8
      name LeftUpLeg
      direction 0.000000 -1.000000 0.000000
      length 18.017682
      axis 0.0 0.0 0.0 xyz
      dof rx ry rz
   end
   begin
      id 9
      name LeftLeg
      direction 0.000000 -1.000000 0.000000
      length 16.881075
      axis 0.0 0.0 0.0 xyz
      dof rx ry rz
   end
   begin
      id 10
      name LeftFoot
      direction 0.000000 -0.258819 0.965926
      length 5.770812
      axis 15.0 0.0 0.0 xyz
      dof rx ry rz
   end
   begin
      id 11
      name LeftToeBase
      direction 0.000000 0.000000 1.000000
      length 2.952750
      axis 0.0 0.0 0.0 xyz
      dof rx ry rz
   end
   begin
      id 12
      name Spine
      direction 0.000000 1.000000 0.000000
      length 0.000000
      axis 0.0 0.0 0.0 xyz
      dof rx ry rz
   end
   begin
      id 13
      name Spine_dum1
      direction 0.000000 1.000000 0.000000
      length 10.941760
      axis 0.0 0.0 0.0 xyz
   end
   begin
      id 14
      name Spine_dum2
      direction 0.000000 1.000000 0.000000
      length 10.941760
      axis 0.0 0.0 0.0 xyz
   end
   begin
      id 15
      name Spine_dum3
      direction 0.000000 1.000000 0.000000
      length 16.646042
      axis 0.0 0.0 0.0 xyz
   end
   begin
      id 16
      name RightShoulder
      direction -1.000000 0.000000 0.000000
      length 7.708937
      axis 0.0 0.0 90.0 xyz
      dof rx ry rz
   end
   begin
      id 17
      name RightArm
      direction -1.000000 0.000000 0.000000
      length 11.521345
      axis 0.0 0.0 90.0 xyz
      dof rx ry rz
   end
   begin
      id 18
      name RightForeArm
      direction -1.000000 0.000000 0.000000
      length 10.175898
      axis 0.0 0.0 90.0 xyz
      dof ry rz rx
   end
   begin
      id 19
      name RightHand
      direction -1.000000 0.000000 0.000000
      length 0.000000
      axis 0.0 0.0 90.0 xyz
      dof rx ry rz
   end
   begin
      id 20
      name RightHand_dum1
      direction -1.000000 0.000000 0.000000
      length 3.937000
      axis 0.0 0.0 90.0 xyz
   end
   begin
      id 21
      name RightHand_dum2
      direction 0.000000 0.000000 0.000000
      length 0.000000
      axis 0.0 0.0 90.0 xyz
   end
   begin
      id 22
      name RightHandThumb1
      direction 0.000000 0.000000 1.000000
      length 3.937000
      axis 0.0 0.0 90.0 xyz
      dof rx rz ry
   end
   begin
      id 23
      name LeftShoulder
      direction 1.000000 0.000000 0.000000
      length 7.708937
      axis 0.0 0.0 -90.0 xyz
      dof rx ry rz
   end
   begin
      id 24
      name LeftArm
      direction 1.000000 0.000000 0.000000
      length 11.521345
      axis 0.0 0.0 -90.0 xyz
      dof rx ry rz
   end
   begin
      id 25
      name LeftForeArm
      direction 1.000000 0.000000 0.000000
      length 10.175898
      axis 0.0 0.0 -90.0 xyz
      dof ry rz rx
   end
   begin
      id 26
      name LeftHand
      direction 1.000000 0.000000 0.000000
      length 0.000000
      axis 0.0 0.0 -90.0 xyz
      dof rx ry rz
   end
   begin
      id 27
      name LeftHand_dum1
      direction 1.000000 0.000000 0.000000
      length 3.937000
      axis 0.0 0.0 -90.0 xyz
   end
   begin
      id 28
      name LeftHand_dum2
      direction 0.000000 0.000000 0.000000
      length 0.000000
      axis 0.0 0.0 -90.0 xyz
   end
   begin
      id 29
      name LeftHandThumb1
      direction 0.000000 0.000000 1.000000
      length 3.937000
      axis 0.0 0.0 -90.0 xyz
      dof rx rz ry
   end
   begin
      id 30
      name Head
      direction 0.000000 1.000000 0.000000
      length 4.527550
      axis 0.0 0.0 0.0 xyz
      dof rx ry rz
   end
:hierarchy
   begin
      root RightUpLeg_dum LeftUpLeg_dum Spine_dum
      RightUpLeg_dum RightUpLeg
      LeftUpLeg_dum LeftUpLeg
      Spine_dum Spine
      RightUpLeg RightLeg
      RightLeg RightFoot
      RightFoot RightToeBase
      LeftUpLeg LeftLeg
      LeftLeg LeftFoot
      LeftFoot LeftToeBase
      Spine Spine_dum1 Spine_dum2 Spine_dum3
      Spine_dum1 RightShoulder
      Spine_dum2 LeftShoulder
      Spine_dum3 Head
      RightShoulder RightArm
      RightArm RightForeArm
      RightForeArm RightHand
      RightHand RightHand_dum1 RightHand_dum2
      RightHand_dum2 RightHandThumb1
      LeftShoulder LeftArm
      LeftArm LeftForeArm
      LeftForeArm LeftHand
      LeftHand LeftHand_dum1 LeftHand_dum2
      LeftHand_dum2 LeftHandThumb1
   end

# File created by Blade
# Date/Time:  Thu Jan 22 16:52:56 2015
# Frame Rate: 120.000 fps
#------------------------------------------------------
:FULLY-SPECIFIED
:DEGREES
598
root 3.270766 3.630773 -2.032564 -50.652787 3.219372 -4.439994
RightUpLeg -24.464966 -27.520667 -35.253858
RightLeg 0.599830 -0.000000 -0.000000
RightFoot 2.396450 -30.750483 31.901332
RightToeBase 5.679979 -0.000000 -0.000000
LeftUpLeg -37.678379 17.860984 20.034842
LeftLeg 3.026662 -0.000000 -0.000000
LeftFoot 10.580541 27.526451 -32.882007
LeftToeBase 0.397343 -0.000000 -0.000000
Spine 65.868858 -6.494687 -1.850595
RightShoulder 5.831119 -35.435534 -23.541900
RightArm 10.288610 -38.385200 69.631187
RightForeArm 2.189728 -0.000000 65.217637
RightHand 12.271565 -0.000000 -10.524802
RightHandThumb1 -24.326973 -0.000000 -32.862282
LeftShoulder -14.853478 48.123423 14.460193
LeftArm 41.881901 36.571313 -60.011611
LeftForeArm -36.107797 -0.000000 58.132847
LeftHand -39.090182 -0.000000 24.765565
LeftHandThumb1 -26.253704 0.000000 33.147579
Head 36.087826 10.850538 0.825753
599
root 3.296164 3.633139 -1.989909 -50.432351 3.281250 -4.400974
RightUpLeg -24.612958 -27.604571 -35.364903
RightLeg 0.637515 -0.000000 -0.000000
RightFoot 2.375177 -30.897165 32.249526
RightToeBase 5.384231 -0.000000 -0.000000
LeftUpLeg -38.078031 17.663211 20.083953
LeftLeg 3.527911 -0.000000 -0.000000
LeftFoot 11.036397 28.048513 -33.475067
LeftToeBase 0.878873 -0.000000 -0.000000
Spine 65.763864 -6.359603 -1.809311
RightShoulder 5.857201 -35.338826 -23.492234
RightArm 10.310673 -38.552863 69.674894
RightForeArm 2.078352 0.000000 64.715571
RightHand 12.345664 -0.000000 -10.491363
RightHandThumb1 -24.326973 -0.000000 -32.862282
LeftShoulder -14.960293 48.019725 14.460279
LeftArm 42.033154 36.726312 -59.917574
LeftForeArm -35.997609 0.000000 57.841689
LeftHand -39.095041 -0.000000 24.427101
LeftHandThumb1 -26.253704 0.000000 33.147579
Head 35.972601 11.135787 0.527367
600
root 3.322277 3.635471 -1.944238 -50.228600 3.305378 -4.352529
RightUpLeg -24.755829 -27.568674 -35.492408
RightLeg 0.707364 -0.000000 -0.000000
RightFoot 2.305494 -31.102044 32.572111
RightToeBase 5.604397 -0.000000 -0.000000
LeftUpLeg -38.474059 17.398307 20.237333
LeftLeg 4.122604 -0.000000 -0.000000
LeftFoot 11.514553 28.700977 -34.245987
LeftToeBase 1.379082 -0.000000 -0.000000
Spine 65.633079 -6.220964 -1.726207
RightShoulder 5.859269 -35.338447 -23.513092
RightArm 10.496558 -38.779673 69.613246
RightForeArm 2.108344 0.000000 64.259590
RightHand 12.223446 -0.000000 -10.554236
RightHandThumb1 -24.326973 -0.000000 -32.862282
LeftShoulder -15.027215 47.890590 14.457279
LeftArm 42.113466 36.899678 -59.837339
LeftForeArm -35.882412 -0.000000 57.581554
LeftHand -39.017022 0.000000 24.043222
LeftHandThumb1 -26.253704 0.000000 33.147579
Head 35.897826 11.457914 0.166370
601
root 3.352183 3.633882 -1.896838 -50.018175 3.335839 -4.272814
RightUpLeg -24.937392 -27.502140 -35.669093
RightLeg 0.830174 -0.000000 -0.000000
RightFoot 2.247891 -31.346329 32.997952
RightToeBase 5.449475 -0.000000 -0.000000
LeftUpLeg -38.926212 17.052196 20.434228
LeftLeg 4.891662 -0.000000 -0.000000
LeftFoot 11.914871 29.373881 -35.115410
LeftToeBase 2.200173 -0.000000 -0.000000
Spine 65.473672 -6.089767 -1.713764
RightShoulder 5.926131 -35.248442 -23.588963
RightArm 10.535410 -38.939514 69.691714
RightForeArm 2.127166 -0.000000 63.834407
RightHand 12.098620 -0.000000 -10.526895
RightHandThumb1 -24.326973 -0.000000 -32.862282
LeftShoulder -15.159801 47.768402 14.380590
LeftArm 42.170247 37.089183 -59.710648
LeftForeArm -35.832574 0.000000 57.371559
LeftHand -38.958102 -0.000000 23.710602
LeftHandThumb1 -26.253704 0.000000 33.147579
Head 35.834662 11.820989 -0.206199
